<svg width="24" height="24" viewBox="0 0 24 24" fill="none" xmlns="http://www.w3.org/2000/svg">
<rect width="24" height="24" rx="3" fill="#202020" style="fill:#202020;fill:color(display-p3 0.1255 0.1255 0.1255);fill-opacity:1;"/>
<path d="M11.5578 5.72998H12.6598C12.6725 5.72998 12.6788 5.72998 12.6788 5.72998C12.6788 5.72998 12.6788 5.73631 12.6788 5.74898V6.85098C12.6788 6.86365 12.6788 6.86998 12.6788 6.86998C12.6788 6.86998 12.6725 6.86998 12.6598 6.86998H11.5578C11.5452 6.86998 11.5388 6.86998 11.5388 6.86998C11.5388 6.86998 11.5388 6.86365 11.5388 6.85098V5.74898C11.5388 5.73631 11.5388 5.72998 11.5388 5.72998C11.5388 5.72998 11.5452 5.72998 11.5578 5.72998ZM13.4578 5.72998H14.5598C14.5725 5.72998 14.5788 5.72998 14.5788 5.72998C14.5788 5.72998 14.5788 5.73631 14.5788 5.74898V6.85098C14.5788 6.86365 14.5788 6.86998 14.5788 6.86998C14.5788 6.86998 14.5725 6.86998 14.5598 6.86998H13.4578C13.4452 6.86998 13.4388 6.86998 13.4388 6.86998C13.4388 6.86998 13.4388 6.86365 13.4388 6.85098V5.74898C13.4388 5.73631 13.4388 5.72998 13.4388 5.72998C13.4388 5.72998 13.4452 5.72998 13.4578 5.72998ZM9.65783 7.62998H10.7598C10.7725 7.62998 10.7788 7.62998 10.7788 7.62998C10.7788 7.62998 10.7788 7.63631 10.7788 7.64898V8.75098C10.7788 8.76365 10.7788 8.76998 10.7788 8.76998C10.7788 8.76998 10.7725 8.76998 10.7598 8.76998H9.65783C9.64516 8.76998 9.63883 8.76998 9.63883 8.76998C9.63883 8.76998 9.63883 8.76365 9.63883 8.75098V7.64898C9.63883 7.63631 9.63883 7.62998 9.63883 7.62998C9.63883 7.62998 9.64516 7.62998 9.65783 7.62998ZM15.3578 7.62998H16.4598C16.4725 7.62998 16.4788 7.62998 16.4788 7.62998C16.4788 7.62998 16.4788 7.63631 16.4788 7.64898V8.75098C16.4788 8.76365 16.4788 8.76998 16.4788 8.76998C16.4788 8.76998 16.4725 8.76998 16.4598 8.76998H15.3578C15.3452 8.76998 15.3388 8.76998 15.3388 8.76998C15.3388 8.76998 15.3388 8.76365 15.3388 8.75098V7.64898C15.3388 7.63631 15.3388 7.62998 15.3388 7.62998C15.3388 7.62998 15.3452 7.62998 15.3578 7.62998ZM9.65783 9.52998H10.7598C10.7725 9.52998 10.7788 9.52998 10.7788 9.52998C10.7788 9.52998 10.7788 9.53631 10.7788 9.54898V10.651C10.7788 10.6636 10.7788 10.67 10.7788 10.67C10.7788 10.67 10.7725 10.67 10.7598 10.67H9.65783C9.64516 10.67 9.63883 10.67 9.63883 10.67C9.63883 10.67 9.63883 10.6636 9.63883 10.651V9.54898C9.63883 9.53631 9.63883 9.52998 9.63883 9.52998C9.63883 9.52998 9.64516 9.52998 9.65783 9.52998ZM7.75783 11.43H8.85983C8.8725 11.43 8.87883 11.43 8.87883 11.43C8.87883 11.43 8.87883 11.4363 8.87883 11.449V12.551C8.87883 12.5636 8.87883 12.57 8.87883 12.57C8.87883 12.57 8.8725 12.57 8.85983 12.57H7.75783C7.74516 12.57 7.73883 12.57 7.73883 12.57C7.73883 12.57 7.73883 12.5636 7.73883 12.551V11.449C7.73883 11.4363 7.73883 11.43 7.73883 11.43C7.73883 11.43 7.74516 11.43 7.75783 11.43ZM9.65783 11.43H10.7598C10.7725 11.43 10.7788 11.43 10.7788 11.43C10.7788 11.43 10.7788 11.4363 10.7788 11.449V12.551C10.7788 12.5636 10.7788 12.57 10.7788 12.57C10.7788 12.57 10.7725 12.57 10.7598 12.57H9.65783C9.64516 12.57 9.63883 12.57 9.63883 12.57C9.63883 12.57 9.63883 12.5636 9.63883 12.551V11.449C9.63883 11.4363 9.63883 11.43 9.63883 11.43C9.63883 11.43 9.64516 11.43 9.65783 11.43ZM11.5578 11.43H12.6598C12.6725 11.43 12.6788 11.43 12.6788 11.43C12.6788 11.43 12.6788 11.4363 12.6788 11.449V12.551C12.6788 12.5636 12.6788 12.57 12.6788 12.57C12.6788 12.57 12.6725 12.57 12.6598 12.57H11.5578C11.5452 12.57 11.5388 12.57 11.5388 12.57C11.5388 12.57 11.5388 12.5636 11.5388 12.551V11.449C11.5388 11.4363 11.5388 11.43 11.5388 11.43C11.5388 11.43 11.5452 11.43 11.5578 11.43ZM13.4578 11.43H14.5598C14.5725 11.43 14.5788 11.43 14.5788 11.43C14.5788 11.43 14.5788 11.4363 14.5788 11.449V12.551C14.5788 12.5636 14.5788 12.57 14.5788 12.57C14.5788 12.57 14.5725 12.57 14.5598 12.57H13.4578C13.4452 12.57 13.4388 12.57 13.4388 12.57C13.4388 12.57 13.4388 12.5636 13.4388 12.551V11.449C13.4388 11.4363 13.4388 11.43 13.4388 11.43C13.4388 11.43 13.4452 11.43 13.4578 11.43ZM9.65783 13.33H10.7598C10.7725 13.33 10.7788 13.33 10.7788 13.33C10.7788 13.33 10.7788 13.3363 10.7788 13.349V14.451C10.7788 14.4636 10.7788 14.47 10.7788 14.47C10.7788 14.47 10.7725 14.47 10.7598 14.47H9.65783C9.64516 14.47 9.63883 14.47 9.63883 14.47C9.63883 14.47 9.63883 14.4636 9.63883 14.451V13.349C9.63883 13.3363 9.63883 13.33 9.63883 13.33C9.63883 13.33 9.64516 13.33 9.65783 13.33ZM9.65783 15.23H10.7598C10.7725 15.23 10.7788 15.23 10.7788 15.23C10.7788 15.23 10.7788 15.2363 10.7788 15.249V16.351C10.7788 16.3636 10.7788 16.37 10.7788 16.37C10.7788 16.37 10.7725 16.37 10.7598 16.37H9.65783C9.64516 16.37 9.63883 16.37 9.63883 16.37C9.63883 16.37 9.63883 16.3636 9.63883 16.351V15.249C9.63883 15.2363 9.63883 15.23 9.63883 15.23C9.63883 15.23 9.64516 15.23 9.65783 15.23ZM9.65783 17.13H10.7598C10.7725 17.13 10.7788 17.13 10.7788 17.13C10.7788 17.13 10.7788 17.1363 10.7788 17.149V18.251C10.7788 18.2636 10.7788 18.27 10.7788 18.27C10.7788 18.27 10.7725 18.27 10.7598 18.27H9.65783C9.64516 18.27 9.63883 18.27 9.63883 18.27C9.63883 18.27 9.63883 18.2636 9.63883 18.251V17.149C9.63883 17.1363 9.63883 17.13 9.63883 17.13C9.63883 17.13 9.64516 17.13 9.65783 17.13Z" fill="white" style="fill:white;fill-opacity:1;"/>
</svg>
